<?xml version="1.0" encoding="UTF-8"?><svg id="Layer_2" xmlns="http://www.w3.org/2000/svg" viewBox="0 0 683.97 735.76"><defs><style>.cls-1{fill:#d1aa67;}</style></defs><g id="Layer_1-2"><path class="cls-1" d="M549.35,392.98l.15,3.32h-83.71l-.07-3.09c-.57-23.74-3.28-46.55-7.74-68.34l-13.93-.07c4.62,21.7,7.46,44.46,8.05,68.26l.07,3.24h-118.12v-17.01l-13.61,36.37v101.04h-37.8l-5.09,13.61h42.89v95.02l-3.64-.54c-22.69-3.39-44.41-18.07-62.8-41.75-2.23,4.25-4.55,8.52-6.99,12.84,3.66,4.38,7.4,8.59,11.34,12.41l10.15,9.87-13.38-4.59c-5.08-1.74-9.97-3.98-14.91-6.08-2.42,4.01-4.96,8.02-7.56,12.04,29.46,12.89,61.46,19.82,94.58,19.82,63.09,0,122.41-24.57,167.04-69.19,44.62-44.62,69.19-103.94,69.19-167.04,0-26.93-4.73-53.08-13.34-77.78l-14.63-.07c8.04,21.62,12.79,44.52,13.84,67.74ZM334.05,409.9h118.12l-.07,3.24c-.9,36.24-6.54,70.34-16.71,101.37l-.72,2.18h-100.61v-106.79ZM334.05,625.32v-95.02h95.65l-1.83,4.38c-4.38,10.56-8.69,19.47-13.18,27.29-20.81,36.19-48.16,58.5-76.99,62.8l-3.64.54ZM506.02,535.35c-7.32,9.87-14.3,18.1-21.37,25.17-23.68,23.68-53.17,42.02-85.29,53.02l-13.38,4.59,10.15-9.87c11.3-10.99,21.49-24.3,30.27-39.58,6.26-10.88,12.01-23.13,17.07-36.35l.78-2.04h65.5l-3.74,5.05ZM549.35,413.22c-1.62,35.9-11.97,71.15-29.95,101.9l-.92,1.57h-69.5l1.25-4.1c9.41-30.73,14.62-64.23,15.47-99.6l.07-3.09h83.71l-.15,3.32Z"/><path class="cls-1" d="M409.09,181.67c-1.92,4.33-3.77,8.6-5.5,12.72,30.44,11.14,58.44,28.68,81.06,51.3,1.72,1.71,3.44,3.75,5.15,5.61l18.37.09c-4.42-5.25-8.98-10.41-13.89-15.32-24.53-24.52-53.6-42.74-85.19-54.4Z"/><path class="cls-1" d="M111.38,633.88c4.05-5.5,7.87-11.17,11.52-16.94-1.62-1.55-3.27-3.04-4.86-4.63-55.87-55.87-86.65-130.18-86.65-209.21s30.78-153.33,86.65-209.2c8.07-8.07,16.56-15.54,25.35-22.55-6.43-3.27-11.23-8.48-14.24-14.54-8.8,7.11-17.31,14.68-25.42,22.79C44.05,239.3,11.17,318.68,11.17,403.1s32.88,163.81,92.58,223.51c2.5,2.5,5.07,4.87,7.64,7.27Z"/><path class="cls-1" d="M450.01,111.7c-4.35,4.88-8.59,10.52-12.69,16.69,36.67,14.69,70.35,36.74,99.12,65.51,55.87,55.88,86.63,130.18,86.63,209.2s-30.76,153.33-86.63,209.21c-55.88,55.87-130.19,86.65-209.21,86.65-46.27,0-90.88-10.63-131.17-30.59-4.58,5.27-9.28,10.46-14.18,15.51,44.38,23.04,93.92,35.31,145.35,35.31,84.42,0,163.8-32.88,223.51-92.58,59.7-59.71,92.58-139.09,92.58-223.51s-32.88-163.79-92.58-223.49c-29.39-29.38-63.56-52.23-100.73-67.9Z"/><path class="cls-1" d="M91.02,403.1c0,59.09,21.78,114.69,61.14,158.16,2.08-4.7,4.05-9.3,5.9-13.77-3.16-3.79-6.34-7.75-9.59-12.14l-3.74-5.05h20.22c1.87-4.83,3.6-9.39,5.18-13.61h-34.13l-.92-1.57c-17.98-30.75-28.33-66-29.95-101.9l-.15-3.32h83.73l.07,3.09c.36,15.09,1.69,29.75,3.63,44.09l10.85-29.02c-.31-4.96-.75-9.87-.87-14.92l-.09-3.24h7.75l5.09-13.61h-12.84l.09-3.26c.93-36.26,6.55-70.36,16.71-101.34l.72-2.18h35.25l5.09-13.61h-35.37l1.83-4.38c4.36-10.5,8.68-19.42,13.2-27.29,14.8-25.76,32.96-44.32,52.57-54.53l2.72-7.28c1.78-4.75,3.69-9.39,5.65-13.97-53.06,5.89-102.24,29.3-140.55,67.6-44.62,44.6-69.19,103.93-69.19,167.03ZM204.24,293.62c-9.4,30.69-14.6,64.2-15.46,99.58l-.07,3.09h-83.73l.15-3.32c1.62-35.9,11.97-71.14,29.95-101.89l.92-1.57h69.5l-1.25,4.1ZM255.11,192.66l13.36-4.58-10.11,9.84c-11.32,11.01-21.49,24.31-30.28,39.59-6.26,10.89-12.01,23.13-17.06,36.36l-.78,2.04h-65.51l3.74-5.05c7.34-9.9,14.32-18.14,21.37-25.18,23.71-23.7,53.2-42.03,85.29-53.02Z"/><path class="cls-1" d="M327.24,87.02c-34.86,0-68.82,5.69-100.93,16.48-8.95,8.59-16.7,18.95-23.34,31,38.45-17.82,80.64-27.25,124.27-27.25,2.73,0,5.45.13,8.17.2,5.1-6.86,10.44-13.33,16-19.43-8.01-.6-16.05-1-24.17-1Z"/><path class="cls-1" d="M426.4,237.51c-7.67-13.34-16.46-25.08-26.08-35.18-2.03,4.99-3.87,9.65-5.54,13.94,7.09,8.12,13.8,17.37,19.9,27.98,1.19,2.07,2.35,4.46,3.52,6.7l15.21.07c-2.28-4.64-4.57-9.26-7.01-13.5Z"/><path class="cls-1" d="M0,735.76l1.78-4.16.12-.29c.1,0,.2,0,.3,0,123.4.37,178.04-149.17,200.75-209.9l122.51-327.62c26.66-71.15,74.87-122.15,131.46-133.76-47.17-9.14-91-21.24-138.13-21.47-84.2-.41-132.7,44.65-156.26,106.16l-4.45-2.25c24.69-65.96,74.03-111.77,163.63-111.33,67.2.33,128.63,24.39,202.02,24.75,58.23.29,101.15-24.5,128.67-50.81,8.05-7.69,20.99-6.49,27.71,2.38h0c6.03,7.96,4.92,19.45-2.82,25.76-32.55,26.53-75.32,37.16-126.12,36.91-29.35-.15-56.16-3.24-82.05-7.83-55.82,11.61-91.5,107.97-110.17,156.88l-21.09,58.41,204.88,1c6.29.03,10.97,5.85,9.64,12h0c-.99,4.58-5.05,7.84-9.74,7.82l-211.37-1.03-85.07,224.23c-22.78,61.52-105.59,214.82-246.2,214.14Z"/></g></svg>