<svg width="984" height="30" viewBox="0 0 984 30" fill="none" xmlns="http://www.w3.org/2000/svg">
<path d="M19.9827 10.6684C19.9827 12.0883 19.6404 13.4194 18.9558 14.6618C18.2966 15.9042 17.2444 16.9057 15.7991 17.6664C14.3793 18.427 12.5791 18.8073 10.3985 18.8073H5.94876V29H0.624232V2.45342H10.3985C12.4523 2.45342 14.2018 2.80839 15.647 3.51833C17.0922 4.22826 18.1698 5.20443 18.8798 6.44682C19.6151 7.68921 19.9827 9.0964 19.9827 10.6684ZM10.1704 14.5097C11.6409 14.5097 12.7312 14.1801 13.4411 13.5208C14.1511 12.8363 14.506 11.8854 14.506 10.6684C14.506 8.08221 13.0608 6.78911 10.1704 6.78911H5.94876V14.5097H10.1704ZM58.1443 29.2662C55.6595 29.2662 53.3776 28.6831 51.2985 27.5167C49.2194 26.3504 47.5713 24.7404 46.3543 22.6866C45.1372 20.6075 44.5287 18.2622 44.5287 15.6506C44.5287 13.0644 45.1372 10.7445 46.3543 8.69072C47.5713 6.61162 49.2194 4.98891 51.2985 3.82258C53.3776 2.65626 55.6595 2.0731 58.1443 2.0731C60.6544 2.0731 62.9364 2.65626 64.9901 3.82258C67.0692 4.98891 68.7046 6.61162 69.8963 8.69072C71.1133 10.7445 71.7218 13.0644 71.7218 15.6506C71.7218 18.2622 71.1133 20.6075 69.8963 22.6866C68.7046 24.7404 67.0692 26.3504 64.9901 27.5167C62.911 28.6831 60.6291 29.2662 58.1443 29.2662ZM58.1443 24.5122C59.7417 24.5122 61.1489 24.1572 62.3659 23.4473C63.5829 22.712 64.5337 21.6724 65.2183 20.3286C65.9029 18.9848 66.2452 17.4255 66.2452 15.6506C66.2452 13.8758 65.9029 12.3292 65.2183 11.0107C64.5337 9.66689 63.5829 8.64002 62.3659 7.93008C61.1489 7.22014 59.7417 6.86517 58.1443 6.86517C56.5469 6.86517 55.1271 7.22014 53.8847 7.93008C52.6676 8.64002 51.7168 9.66689 51.0322 11.0107C50.3477 12.3292 50.0054 13.8758 50.0054 15.6506C50.0054 17.4255 50.3477 18.9848 51.0322 20.3286C51.7168 21.6724 52.6676 22.712 53.8847 23.4473C55.1271 24.1572 56.5469 24.5122 58.1443 24.5122ZM106.908 29.2662C105.057 29.2662 103.383 28.9493 101.887 28.3154C100.417 27.6815 99.2505 26.7688 98.3885 25.5771C97.5264 24.3854 97.0827 22.9782 97.0573 21.3555H102.762C102.838 22.4458 103.219 23.3078 103.903 23.9417C104.613 24.5756 105.577 24.8925 106.794 24.8925C108.036 24.8925 109.012 24.6009 109.722 24.0178C110.432 23.4092 110.787 22.6232 110.787 21.6598C110.787 20.8738 110.546 20.2272 110.064 19.7201C109.583 19.213 108.974 18.82 108.239 18.5411C107.529 18.2368 106.54 17.9072 105.272 17.5523C103.548 17.0452 102.141 16.5507 101.051 16.069C99.9858 15.5619 99.0604 14.8139 98.2744 13.8251C97.5137 12.8109 97.1334 11.4671 97.1334 9.79366C97.1334 8.22166 97.5264 6.85249 98.3124 5.68617C99.0984 4.51984 100.201 3.63242 101.621 3.0239C103.041 2.39003 104.664 2.0731 106.489 2.0731C109.228 2.0731 111.446 2.745 113.145 4.08881C114.869 5.40726 115.82 7.25817 115.997 9.64153H110.14C110.09 8.72876 109.697 7.98079 108.961 7.39763C108.252 6.78911 107.301 6.48485 106.109 6.48485C105.069 6.48485 104.233 6.75108 103.599 7.28353C102.99 7.81598 102.686 8.58931 102.686 9.6035C102.686 10.3134 102.914 10.9093 103.371 11.391C103.852 11.8474 104.436 12.2277 105.12 12.532C105.83 12.8109 106.819 13.1405 108.087 13.5208C109.811 14.0279 111.218 14.535 112.308 15.0421C113.399 15.5492 114.337 16.3099 115.123 17.3241C115.909 18.3383 116.302 19.6694 116.302 21.3175C116.302 22.7373 115.934 24.0558 115.199 25.2728C114.463 26.4899 113.386 27.466 111.966 28.2013C110.546 28.9113 108.86 29.2662 106.908 29.2662ZM152.142 29.2662C150.292 29.2662 148.618 28.9493 147.122 28.3154C145.652 27.6815 144.485 26.7688 143.623 25.5771C142.761 24.3854 142.317 22.9782 142.292 21.3555H147.997C148.073 22.4458 148.453 23.3078 149.138 23.9417C149.848 24.5756 150.811 24.8925 152.028 24.8925C153.271 24.8925 154.247 24.6009 154.957 24.0178C155.667 23.4092 156.022 22.6232 156.022 21.6598C156.022 20.8738 155.781 20.2272 155.299 19.7201C154.817 19.213 154.209 18.82 153.474 18.5411C152.764 18.2368 151.775 17.9072 150.507 17.5523C148.783 17.0452 147.376 16.5507 146.285 16.069C145.221 15.5619 144.295 14.8139 143.509 13.8251C142.748 12.8109 142.368 11.4671 142.368 9.79366C142.368 8.22166 142.761 6.85249 143.547 5.68617C144.333 4.51984 145.436 3.63242 146.856 3.0239C148.276 2.39003 149.899 2.0731 151.724 2.0731C154.462 2.0731 156.681 2.745 158.38 4.08881C160.104 5.40726 161.055 7.25817 161.232 9.64153H155.375C155.324 8.72876 154.931 7.98079 154.196 7.39763C153.486 6.78911 152.535 6.48485 151.344 6.48485C150.304 6.48485 149.467 6.75108 148.834 7.28353C148.225 7.81598 147.921 8.58931 147.921 9.6035C147.921 10.3134 148.149 10.9093 148.605 11.391C149.087 11.8474 149.67 12.2277 150.355 12.532C151.065 12.8109 152.054 13.1405 153.321 13.5208C155.046 14.0279 156.453 14.535 157.543 15.0421C158.633 15.5492 159.571 16.3099 160.357 17.3241C161.143 18.3383 161.536 19.6694 161.536 21.3175C161.536 22.7373 161.169 24.0558 160.433 25.2728C159.698 26.4899 158.621 27.466 157.201 28.2013C155.781 28.9113 154.095 29.2662 152.142 29.2662ZM207.57 10.6684C207.57 12.0883 207.228 13.4194 206.543 14.6618C205.884 15.9042 204.831 16.9057 203.386 17.6664C201.966 18.427 200.166 18.8073 197.986 18.8073H193.536V29H188.211V2.45342H197.986C200.039 2.45342 201.789 2.80839 203.234 3.51833C204.679 4.22826 205.757 5.20443 206.467 6.44682C207.202 7.68921 207.57 9.0964 207.57 10.6684ZM197.757 14.5097C199.228 14.5097 200.318 14.1801 201.028 13.5208C201.738 12.8363 202.093 11.8854 202.093 10.6684C202.093 8.08221 200.648 6.78911 197.757 6.78911H193.536V14.5097H197.757ZM245.731 29.2662C243.247 29.2662 240.965 28.6831 238.886 27.5167C236.807 26.3504 235.158 24.7404 233.941 22.6866C232.724 20.6075 232.116 18.2622 232.116 15.6506C232.116 13.0644 232.724 10.7445 233.941 8.69072C235.158 6.61162 236.807 4.98891 238.886 3.82258C240.965 2.65626 243.247 2.0731 245.731 2.0731C248.242 2.0731 250.524 2.65626 252.577 3.82258C254.656 4.98891 256.292 6.61162 257.483 8.69072C258.7 10.7445 259.309 13.0644 259.309 15.6506C259.309 18.2622 258.7 20.6075 257.483 22.6866C256.292 24.7404 254.656 26.3504 252.577 27.5167C250.498 28.6831 248.216 29.2662 245.731 29.2662ZM245.731 24.5122C247.329 24.5122 248.736 24.1572 249.953 23.4473C251.17 22.712 252.121 21.6724 252.805 20.3286C253.49 18.9848 253.832 17.4255 253.832 15.6506C253.832 13.8758 253.49 12.3292 252.805 11.0107C252.121 9.66689 251.17 8.64002 249.953 7.93008C248.736 7.22014 247.329 6.86517 245.731 6.86517C244.134 6.86517 242.714 7.22014 241.472 7.93008C240.255 8.64002 239.304 9.66689 238.619 11.0107C237.935 12.3292 237.593 13.8758 237.593 15.6506C237.593 17.4255 237.935 18.9848 238.619 20.3286C239.304 21.6724 240.255 22.712 241.472 23.4473C242.714 24.1572 244.134 24.5122 245.731 24.5122ZM290.654 24.7784H299.401V29H285.329V2.45342H290.654V24.7784ZM330.169 6.75107V13.4067H339.106V17.6283H330.169V24.6643H340.247V29H324.844V2.41539H340.247V6.75107H330.169ZM414.111 26.0715C414.466 26.0715 414.758 26.1856 414.986 26.4138C415.24 26.6166 415.366 26.8955 415.366 27.2505C415.366 27.783 415.151 28.1379 414.72 28.3154C414.289 28.4929 413.858 28.5816 413.427 28.5816H397.605V1.00819H400.306V27.783H410.879C411.665 27.783 412.184 27.6942 412.438 27.5167C412.691 27.3393 412.856 27.1491 412.932 26.9463C413.034 26.7181 413.122 26.5152 413.199 26.3377C413.3 26.1603 413.604 26.0715 414.111 26.0715ZM459.052 1.00819V20.6709C459.052 21.9133 458.799 23.0543 458.292 24.0938C457.81 25.108 457.125 25.9828 456.238 26.7181C455.376 27.428 454.324 27.9858 453.081 28.3915C451.864 28.7972 450.52 29 449.05 29C447.554 29 446.185 28.7972 444.942 28.3915C443.725 27.9858 442.673 27.428 441.786 26.7181C440.898 25.9828 440.214 25.108 439.732 24.0938C439.25 23.0543 439.009 21.9133 439.009 20.6709V1.00819H441.633V21.6978C441.633 22.6613 441.824 23.5487 442.204 24.3601C442.584 25.1461 443.117 25.8306 443.801 26.4138C444.511 26.9716 445.348 27.4153 446.311 27.7449C447.3 28.0492 448.403 28.2013 449.62 28.2013C450.888 28.2013 452.042 28.0365 453.081 27.7069C454.121 27.3519 455.008 26.8702 455.743 26.2617C456.479 25.6278 457.049 24.8672 457.455 23.9797C457.861 23.0923 458.063 22.1161 458.063 21.0512V1.00819H459.052ZM503.051 28.5816L494.418 15.5746L485.936 28.5816H484.795L493.847 14.8139L484.605 1.00819H487.724L495.33 12.4559L502.785 1.00819H503.926L495.901 13.2926L506.017 28.5816H503.051ZM550.264 1.00819V20.6709C550.264 21.9133 550.011 23.0543 549.504 24.0938C549.022 25.108 548.337 25.9828 547.45 26.7181C546.588 27.428 545.536 27.9858 544.293 28.3915C543.076 28.7972 541.733 29 540.262 29C538.766 29 537.397 28.7972 536.154 28.3915C534.937 27.9858 533.885 27.428 532.998 26.7181C532.11 25.9828 531.426 25.108 530.944 24.0938C530.462 23.0543 530.221 21.9133 530.221 20.6709V1.00819H532.846V21.6978C532.846 22.6613 533.036 23.5487 533.416 24.3601C533.796 25.1461 534.329 25.8306 535.013 26.4138C535.723 26.9716 536.56 27.4153 537.524 27.7449C538.512 28.0492 539.615 28.2013 540.832 28.2013C542.1 28.2013 543.254 28.0365 544.293 27.7069C545.333 27.3519 546.22 26.8702 546.956 26.2617C547.691 25.6278 548.261 24.8672 548.667 23.9797C549.073 23.0923 549.276 22.1161 549.276 21.0512V1.00819H550.264ZM586.238 14.3956C587.303 14.3956 588.406 14.3195 589.547 14.1674C590.713 14.0153 591.766 13.711 592.704 13.2546C593.667 12.7729 594.453 12.101 595.062 11.2389C595.696 10.3768 596.013 9.23585 596.013 7.81598C596.013 6.47217 595.721 5.40727 595.138 4.62126C594.555 3.80991 593.794 3.20139 592.856 2.79571C591.918 2.36468 590.866 2.09845 589.699 1.99703C588.558 1.87026 587.405 1.80687 586.238 1.80687H580.762V14.3956H586.238ZM588.292 15.1943C589.053 15.5746 589.712 16.0563 590.27 16.6395C590.853 17.2226 591.385 17.8819 591.867 18.6172C592.349 19.3271 592.818 20.1004 593.274 20.9371C593.731 21.7739 594.25 22.6232 594.834 23.4853C595.417 24.3474 596.076 25.2221 596.811 26.1095C597.547 26.9716 598.434 27.7956 599.474 28.5816H596.431C595.341 27.9731 594.441 27.2252 593.731 26.3377C593.021 25.425 592.412 24.4742 591.905 23.4853C591.423 22.4965 590.992 21.5076 590.612 20.5188C590.257 19.5299 589.864 18.6552 589.433 17.8946C589.027 17.1086 588.546 16.4747 587.988 15.9929C587.43 15.4858 586.707 15.2323 585.82 15.2323H580.762V28.5816H578.061V1.00819H586.238C587.531 1.00819 588.913 1.08425 590.384 1.23638C591.88 1.36316 593.249 1.6801 594.491 2.18719C595.759 2.66894 596.811 3.37887 597.648 4.317C598.485 5.22978 598.903 6.48485 598.903 8.08221C598.903 12.3925 595.366 14.7632 588.292 15.1943ZM625.345 1.00819L634.092 14.0153L642.46 1.00819H643.639L634.549 15.0421V28.5816H631.849V15.2323L622.379 1.00819H625.345ZM715.325 1.00819C715.933 1.00819 716.402 1.12229 716.732 1.35048C717.087 1.57867 717.264 1.90829 717.264 2.33932C717.264 2.69429 717.15 2.98587 716.922 3.21407C716.694 3.41691 716.39 3.51833 716.009 3.51833C715.325 3.51833 714.906 3.18871 714.754 2.52948C714.704 2.27594 714.552 2.09845 714.298 1.99703C714.07 1.87026 713.563 1.80687 712.777 1.80687H702.204V14.3956H712.434V15.2323H702.204V28.5816H699.503V1.00819H715.325ZM757.269 28.5816H754.531L752.63 22.4965H739.965L738.063 28.5816H736.96L745.898 1.00819H748.56L757.269 28.5816ZM752.325 21.6978L746.354 2.75768L740.307 21.6978H752.325ZM795.538 14.852C800.229 16.6015 802.574 18.9468 802.574 21.888C802.574 22.9021 802.321 23.853 801.814 24.7404C801.307 25.6024 800.597 26.3504 799.684 26.9843C798.796 27.6182 797.744 28.1126 796.527 28.4675C795.31 28.8225 793.979 29 792.534 29C791.367 29 790.277 28.8859 789.263 28.6577C788.249 28.4042 787.323 28.0745 786.487 27.6689C785.675 27.2632 784.953 26.7814 784.319 26.2236C783.685 25.6658 783.165 25.07 782.759 24.4361C782.379 23.8276 782.126 23.2318 781.999 22.6486C781.872 22.0401 781.859 21.5076 781.961 21.0512C782.088 20.5695 782.328 20.1892 782.683 19.9103C783.038 19.606 783.52 19.4539 784.129 19.4539C784.686 19.4539 785.156 19.6567 785.536 20.0624C785.916 20.4427 786.106 21.216 786.106 22.3824C786.106 23.4473 786.258 24.3474 786.563 25.0827C786.892 25.818 787.349 26.4138 787.932 26.8702C788.54 27.3266 789.263 27.6689 790.1 27.8971C790.936 28.0999 791.875 28.2013 792.914 28.2013C795.145 28.2013 796.857 27.7703 798.048 26.9082C799.266 26.0462 799.874 24.8164 799.874 23.2191C799.874 22.4331 799.722 21.7105 799.418 21.0512C799.113 20.392 798.682 19.7835 798.125 19.2257C797.567 18.6679 796.895 18.1735 796.109 17.7424C795.348 17.286 794.499 16.8804 793.561 16.5254L788.921 14.7759C786.867 13.9899 785.308 13.0137 784.243 11.8474C783.203 10.6557 782.683 9.28657 782.683 7.73992C782.683 6.70037 782.912 5.74956 783.368 4.88749C783.85 4.00007 784.496 3.23942 785.308 2.60555C786.144 1.97168 787.133 1.47726 788.274 1.12229C789.415 0.767318 790.67 0.589834 792.039 0.589834C793.18 0.589834 794.195 0.703931 795.082 0.932125C795.995 1.16032 796.806 1.47726 797.516 1.88293C798.226 2.26326 798.847 2.71965 799.38 3.2521C799.912 3.7592 800.356 4.29165 800.711 4.84946C801.142 5.53404 801.433 6.19327 801.585 6.82714C801.738 7.46101 801.763 8.01882 801.662 8.50056C801.585 8.98231 801.37 9.37531 801.015 9.67957C800.66 9.98382 800.204 10.136 799.646 10.136C799.342 10.136 799.037 10.0852 798.733 9.98383C798.454 9.85705 798.213 9.65421 798.01 9.37531C797.808 9.0964 797.643 8.71608 797.516 8.23434C797.415 7.75259 797.377 7.1314 797.402 6.37075C797.478 4.67197 797.123 3.41691 796.337 2.60555C795.576 1.79419 794.157 1.38851 792.077 1.38851C789.846 1.38851 788.173 1.8449 787.057 2.75768C785.942 3.67045 785.384 5.00159 785.384 6.75107C785.384 8.1963 785.802 9.42602 786.639 10.4402C787.475 11.4291 788.883 12.3038 790.86 13.0644L795.538 14.852ZM850.483 1.00819V28.5816H847.783V15.2323H832.114V28.5816H829.414V1.00819H832.114V14.3956H847.783V1.00819H850.483ZM878.511 28.5816V1.00819H881.211V28.5816H878.511ZM922.193 28.2013C923.892 28.2013 925.439 27.8844 926.833 27.2505C928.228 26.5913 929.42 25.6785 930.408 24.5122C931.397 23.3459 932.158 21.9387 932.69 20.2906C933.248 18.6425 933.527 16.817 933.527 14.8139C933.527 12.8109 933.248 10.9853 932.69 9.33728C932.158 7.66385 931.397 6.24398 930.408 5.07765C929.42 3.91133 928.228 3.01123 926.833 2.37735C925.439 1.71813 923.892 1.38851 922.193 1.38851C920.52 1.38851 918.986 1.71813 917.592 2.37735C916.197 3.01123 915.005 3.91133 914.017 5.07765C913.028 6.24398 912.254 7.66385 911.697 9.33728C911.164 10.9853 910.898 12.8109 910.898 14.8139C910.898 16.817 911.164 18.6425 911.697 20.2906C912.254 21.9387 913.028 23.3459 914.017 24.5122C915.005 25.6785 916.197 26.5913 917.592 27.2505C918.986 27.8844 920.52 28.2013 922.193 28.2013ZM922.193 0.589834C924.323 0.589834 926.263 0.932125 928.012 1.61671C929.762 2.30129 931.258 3.26478 932.5 4.50717C933.743 5.74956 934.706 7.2455 935.391 8.99498C936.075 10.7445 936.418 12.6841 936.418 14.8139C936.418 16.9437 936.075 18.8834 935.391 20.6329C934.706 22.357 933.743 23.8403 932.5 25.0827C931.258 26.3251 929.762 27.2885 928.012 27.9731C926.263 28.6577 924.323 29 922.193 29C920.064 29 918.124 28.6577 916.375 27.9731C914.65 27.2885 913.167 26.3251 911.925 25.0827C910.682 23.8403 909.719 22.357 909.034 20.6329C908.35 18.8834 908.007 16.9437 908.007 14.8139C908.007 12.6841 908.35 10.7445 909.034 8.99498C909.719 7.2455 910.682 5.74956 911.925 4.50717C913.167 3.26478 914.65 2.30129 916.375 1.61671C918.124 0.932125 920.064 0.589834 922.193 0.589834ZM983.305 1.00819V28.5816H982.354L964.25 5.03962V28.5816H963.224V1.00819H964.25L982.354 24.4742V1.00819H983.305Z" fill="#D2AC67"/>
</svg>
